[Header]
FileType HTR
DataType HTRS
FileVersion 1
NumSegments 64
NumFrames 4
DataFrameRate 30
EulerRotationOrder ZYX
CalibrationUnits mm
RotationUnits Degrees
GlobalAxisofGravity Y
BoneLengthAxis Y
ScaleFactor 1.0
[SegmentNames&Hierarchy]
Hips	GLOBAL
Spine	Hips
Spine1	Spine
Spine2	Spine1
Neck	Spine2
Head	Neck
LeftEye	Head
RightEye	Head
LeftShoulder	Spine2
LeftArm	LeftShoulder
LeftForeArm	LeftArm
LeftHand	LeftForeArm
LeftHandThumb1	LeftHand
LeftHandThumb2	LeftHandThumb1
LeftHandThumb3	LeftHandThumb2
LeftHandThumb4	LeftHandThumb3
LeftHandIndex1	LeftHand
LeftHandIndex2	LeftHandIndex1
LeftHandIndex3	LeftHandIndex2
LeftHandIndex4	LeftHandIndex3
LeftHandMiddle1	LeftHand
LeftHandMiddle2	LeftHandMiddle1
LeftHandMiddle3	LeftHandMiddle2
LeftHandMiddle4	LeftHandMiddle3
LeftHandRing1	LeftHand
LeftHandRing2	LeftHandRing1
LeftHandRing3	LeftHandRing2
LeftHandRing4	LeftHandRing3
LeftHandPinky1	LeftHand
LeftHandPinky2	LeftHandPinky1
LeftHandPinky3	LeftHandPinky2
LeftHandPinky4	LeftHandPinky3
RightShoulder	Spine2
RightArm	RightShoulder
RightForeArm	RightArm
RightHand	RightForeArm
RightHandPinky1	RightHand
RightHandPinky2	RightHandPinky1
RightHandPinky3	RightHandPinky2
RightHandPinky4	RightHandPinky3
RightHandRing1	RightHand
RightHandRing2	RightHandRing1
RightHandRing3	RightHandRing2
RightHandRing4	RightHandRing3
RightHandMiddle1	RightHand
RightHandMiddle2	RightHandMiddle1
RightHandMiddle3	RightHandMiddle2
RightHandMiddle4	RightHandMiddle3
RightHandIndex1	RightHand
RightHandIndex2	RightHandIndex1
RightHandIndex3	RightHandIndex2
RightHandIndex4	RightHandIndex3
RightHandThumb1	RightHand
RightHandThumb2	RightHandThumb1
RightHandThumb3	RightHandThumb2
RightHandThumb4	RightHandThumb3
LeftUpLeg	Hips
LeftLeg	LeftUpLeg
LeftFoot	LeftLeg
LeftToeBase	LeftFoot
RightUpLeg	Hips
RightLeg	RightUpLeg
RightFoot	RightLeg
RightToeBase	RightFoot
[BasePosition]
Hips	0	0	0	0	0	0	1
Spine	0	0	0	0	0	0	1
Spine1	0	0	0	0	0	0	1
Spine2	0	0	0	0	0	0	1
Neck	0	0	0	0	0	0	1
Head	0	0	0	0	0	0	1
LeftEye	0	0	0	0	0	0	1
RightEye	0	0	0	0	0	0	1
LeftShoulder	0	0	0	0	0	0	1
LeftArm	0	0	0	0	0	0	1
LeftForeArm	0	0	0	0	0	0	1
LeftHand	0	0	0	0	0	0	1
LeftHandThumb1	0	0	0	0	0	0	1
LeftHandThumb2	0	0	0	0	0	0	1
LeftHandThumb3	0	0	0	0	0	0	1
LeftHandThumb4	0	0	0	0	0	0	1
LeftHandIndex1	0	0	0	0	0	0	1
LeftHandIndex2	0	0	0	0	0	0	1
LeftHandIndex3	0	0	0	0	0	0	1
LeftHandIndex4	0	0	0	0	0	0	1
LeftHandMiddle1	0	0	0	0	0	0	1
LeftHandMiddle2	0	0	0	0	0	0	1
LeftHandMiddle3	0	0	0	0	0	0	1
LeftHandMiddle4	0	0	0	0	0	0	1
LeftHandRing1	0	0	0	0	0	0	1
LeftHandRing2	0	0	0	0	0	0	1
LeftHandRing3	0	0	0	0	0	0	1
LeftHandRing4	0	0	0	0	0	0	1
LeftHandPinky1	0	0	0	0	0	0	1
LeftHandPinky2	0	0	0	0	0	0	1
LeftHandPinky3	0	0	0	0	0	0	1
LeftHandPinky4	0	0	0	0	0	0	1
RightShoulder	0	0	0	0	0	0	1
RightArm	0	0	0	0	0	0	1
RightForeArm	0	0	0	0	0	0	1
RightHand	0	0	0	0	0	0	1
RightHandPinky1	0	0	0	0	0	0	1
RightHandPinky2	0	0	0	0	0	0	1
RightHandPinky3	0	0	0	0	0	0	1
RightHandPinky4	0	0	0	0	0	0	1
RightHandRing1	0	0	0	0	0	0	1
RightHandRing2	0	0	0	0	0	0	1
RightHandRing3	0	0	0	0	0	0	1
RightHandRing4	0	0	0	0	0	0	1
RightHandMiddle1	0	0	0	0	0	0	1
RightHandMiddle2	0	0	0	0	0	0	1
RightHandMiddle3	0	0	0	0	0	0	1
RightHandMiddle4	0	0	0	0	0	0	1
RightHandIndex1	0	0	0	0	0	0	1
RightHandIndex2	0	0	0	0	0	0	1
RightHandIndex3	0	0	0	0	0	0	1
RightHandIndex4	0	0	0	0	0	0	1
RightHandThumb1	0	0	0	0	0	0	1
RightHandThumb2	0	0	0	0	0	0	1
RightHandThumb3	0	0	0	0	0	0	1
RightHandThumb4	0	0	0	0	0	0	1
LeftUpLeg	0	0	0	0	0	0	1
LeftLeg	0	0	0	0	0	0	1
LeftFoot	0	0	0	0	0	0	1
LeftToeBase	0	0	0	0	0	0	1
RightUpLeg	0	0	0	0	0	0	1
RightLeg	0	0	0	0	0	0	1
RightFoot	0	0	0	0	0	0	1
RightToeBase	0	0	0	0	0	0	1
[Hips]
209	60.48035431	933.3308105	127.2639313	4.832366943	-9.516363144	-0.7341518402	1.0
210	49.11738586	946.0135498	131.6134491	3.99426651	-8.357791901	-1.614868641	1.0
211	32.34347153	974.7290649	136.7333069	3.111385345	-6.181213379	-3.011189938	1.0
212	11.51536465	1009.494263	144.299942	2.225986958	-3.556690216	-4.70227623	1.0
[Spine]
209	0	101.8159943	1.315000057	8.265613556	-3.443762779	0.7722523808	1.0
210	0	101.8159943	1.315000057	8.049986839	-3.455637217	1.674313784	1.0
211	0	101.8159943	1.315000057	7.444067001	-3.761787653	3.031214476	1.0
212	0	101.8159943	1.315000057	6.448302269	-4.401215553	4.219916821	1.0
[Spine1]
209	0	100.8349991	-10.00800037	4.152476788	-0.493958354	0.5522392392	1.0
210	0	100.8349991	-10.00800037	4.457683563	-0.4906715453	0.7783913612	1.0
211	0	100.8349991	-10.00800037	4.630451202	-0.5263929963	1.060642958	1.0
212	0	100.8349991	-10.00800037	4.435402393	-0.613275528	1.314083338	1.0
[Spine2]
209	0	91	-13.73399925	4.141370296	-0.4537708759	0.5321958661	1.0
210	0	91	-13.73399925	4.448133945	-0.4333215058	0.7534591556	1.0
211	0	91	-13.73399925	4.623660564	-0.4538984597	1.029188752	1.0
212	0	91	-13.73399925	4.4311409	-0.5404747128	1.277368546	1.0
[Neck]
209	0	166.7169952	-25.16200066	-5.230403423	-3.285308599	-3.592289209	1.0
210	0	166.7169952	-25.16200066	-6.027122974	-3.623339653	-4.260420322	1.0
211	0	166.7169952	-25.16200066	-6.468806267	-3.919673443	-4.934711933	1.0
212	0	166.7169952	-25.16200066	-5.904106617	-4.161440372	-4.574397564	1.0
[Head]
209	0	96.17900085	16.84999847	-17.70874596	-18.87346077	9.276256561	1.0
210	0	96.17900085	16.84999847	-17.15095711	-20.84581375	10.00212955	1.0
211	0	96.17900085	16.84999847	-15.1863699	-22.64366913	10.4031353	1.0
212	0	96.17900085	16.84999847	-11.30854702	-23.87098312	9.462545395	1.0
[LeftEye]
209	30.6760006	64.09500122	92.83599854	0	0	0	1.0
210	30.6760006	64.09500122	92.83599854	0	0	0	1.0
211	30.6760006	64.09500122	92.83599854	0	0	0	1.0
212	30.6760006	64.09500122	92.83599854	0	0	0	1.0
[RightEye]
209	-30.6760006	64.09500122	92.83499908	0	0	0	1.0
210	-30.6760006	64.09500122	92.83499908	0	0	0	1.0
211	-30.6760006	64.09500122	92.83499908	0	0	0	1.0
212	-30.6760006	64.09500122	92.83499908	0	0	0	1.0
[LeftShoulder]
209	45.70400238	109.4599991	-26.28000069	2.956175089	-20.25076294	0.7898287773	1.0
210	45.70400238	109.4599991	-26.28000069	2.927340984	-21.12878227	0.7228964567	1.0
211	45.70400238	109.4599991	-26.28000069	2.899831772	-21.74264717	0.6603953242	1.0
212	45.70400238	109.4599991	-26.28000069	2.879897118	-22.30544853	0.584533155	1.0
[LeftArm]
209	105.923996	-5.24600029	-22.32099915	-26.42773628	-57.13278961	5.837427139	1.0
210	105.923996	-5.24600029	-22.32099915	-23.98757553	-57.77895737	4.856668472	1.0
211	105.923996	-5.24600029	-22.32099915	-18.45293236	-58.60030365	1.411738515	1.0
212	105.923996	-5.24600029	-22.32099915	-10.34421635	-59.12592697	-3.992384434	1.0
[LeftForeArm]
209	278.414978	-0.0009999999311	0	3.527834997e-05	-104.1774521	-0.0002390137088	1.0
210	278.414978	-0.0009999999311	0	2.563487215e-05	-105.3382339	-0.0002376710618	1.0
211	278.414978	-0.0009999999311	0	0	-105.1812668	-0.0001983642578	1.0
212	278.414978	-0.0009999999311	0	1.440433516e-05	-102.6725845	-0.0002254639548	1.0
[LeftHand]
209	283.2879944	0	0	18.30991745	-14.11768246	-17.75302887	1.0
210	283.2879944	0	0	20.29222298	-15.60832977	-16.9549942	1.0
211	283.2879944	0	0	22.37383842	-15.97013569	-16.71486282	1.0
212	283.2879944	0	0	22.97611237	-15.49712658	-16.30672264	1.0
[LeftHandThumb1]
209	24.6609993	-15.75	26.8239994	-1.44146657	-8.319263458	8.653961182	1.0
210	24.6609993	-15.75	26.8239994	-1.441470146	-8.319288254	8.653974533	1.0
211	24.6609993	-15.75	26.8239994	-1.441475272	-8.319322586	8.653987885	1.0
212	24.6609993	-15.75	26.8239994	-1.441454649	-8.319186211	8.65392971	1.0
[LeftHandThumb2]
209	32.29800034	-18.64699936	18.64699936	-0.9985582232	48.03612518	-30.10175514	1.0
210	32.29800034	-18.64699936	18.64699936	-0.9988750815	48.03631973	-30.1021595	1.0
211	32.29800034	-18.64699936	18.64699936	-0.999103725	48.03646851	-30.10244751	1.0
212	32.29800034	-18.64699936	18.64699936	-0.9979109168	48.03573608	-30.10095215	1.0
[LeftHandThumb3]
209	26.52600098	-15.31499958	15.31499958	7.522152424	50.02404785	24.38754463	1.0
210	26.52600098	-15.31499958	15.31499958	7.522397518	50.02433395	24.38773155	1.0
211	26.52600098	-15.31499958	15.31499958	7.52257967	50.02451706	24.38786125	1.0
212	26.52600098	-15.31499958	15.31499958	7.521698475	50.0234108	24.38718605	1.0
[LeftHandThumb4]
209	19.54599953	-11.28499985	11.28499985	0	0	0	1.0
210	19.54599953	-11.28499985	11.28499985	0	0	0	1.0
211	19.54599953	-11.28499985	11.28499985	0	0	0	1.0
212	19.54599953	-11.28499985	11.28499985	0	0	0	1.0
[LeftHandIndex1]
209	91.09299469	-5.170999527	22.60099792	-1.706925988	9.272182465	-79.12518311	1.0
210	91.09299469	-5.170999527	22.60099792	-1.706965446	9.272210121	-79.12575531	1.0
211	91.09299469	-5.170999527	22.60099792	-1.706983328	9.272244453	-79.12612152	1.0
212	91.09299469	-5.170999527	22.60099792	-1.706841111	9.272098541	-79.12400055	1.0
[LeftHandIndex2]
209	36.76399994	0	0	-5.084235668	5.778047085	-82.67960358	1.0
210	36.76399994	0	0	-5.084268093	5.778058529	-82.67990875	1.0
211	36.76399994	0	0	-5.084294319	5.778055668	-82.68015289	1.0
212	36.76399994	0	0	-5.084172249	5.778038025	-82.67896271	1.0
[LeftHandIndex3]
209	28.83100128	0	0	-6.449682236	5.791766167	-96.16442871	1.0
210	28.83100128	0	0	-6.449703217	5.791757584	-96.16478729	1.0
211	28.83100128	0	0	-6.449733257	5.79175663	-96.16503143	1.0
212	28.83100128	0	0	-6.449613094	5.791768551	-96.16368866	1.0
[LeftHandIndex4]
209	23.92700005	0	0	0	0	0	1.0
210	23.92700005	0	0	0	0	0	1.0
211	23.92700005	0	0	0	0	0	1.0
212	23.92700005	0	0	0	0	0	1.0
[LeftHandMiddle1]
209	95.33399963	0	0	-6.494755745	5.27326107	-74.3039093	1.0
210	95.33399963	0	0	-6.494792461	5.273257732	-74.30420685	1.0
211	95.33399963	0	0	-6.494815826	5.273259163	-74.30438995	1.0
212	95.33399963	0	0	-6.494686604	5.273262978	-74.30328369	1.0
[LeftHandMiddle2]
209	36.98199844	0	0	-7.583490372	5.554388046	-107.5965042	1.0
210	36.98199844	0	0	-7.58353281	5.554374218	-107.5969238	1.0
211	36.98199844	0	0	-7.583558083	5.55437088	-107.5972214	1.0
212	36.98199844	0	0	-7.583416462	5.554419518	-107.5956955	1.0
[LeftHandMiddle3]
209	29.50900078	0	0	-4.044085026	5.54712677	-72.1671524	1.0
210	29.50900078	0	0	-4.044120789	5.547137737	-72.1674881	1.0
211	29.50900078	0	0	-4.044138908	5.547147751	-72.16773224	1.0
212	29.50900078	0	0	-4.044010162	5.547109127	-72.16644287	1.0
[LeftHandMiddle4]
209	28.3390007	0	0	0	0	0	1.0
210	28.3390007	0	0	0	0	0	1.0
211	28.3390007	0	0	0	0	0	1.0
212	28.3390007	0	0	0	0	0	1.0
[LeftHandRing1]
209	91.04499817	-0.4390000105	-18.65100098	-7.093587875	2.50795722	-79.76665497	1.0
210	91.04499817	-0.4390000105	-18.65100098	-7.093605995	2.507949591	-79.76679993	1.0
211	91.04499817	-0.4390000105	-18.65100098	-7.093623638	2.50793004	-79.76694489	1.0
212	91.04499817	-0.4390000105	-18.65100098	-7.093551159	2.507979155	-79.7663269	1.0
[LeftHandRing2]
209	31.54000092	0	0	-6.249153614	5.809820175	-94.18062592	1.0
210	31.54000092	0	0	-6.249186993	5.809813499	-94.18096924	1.0
211	31.54000092	0	0	-6.249214649	5.809812546	-94.18125916	1.0
212	31.54000092	0	0	-6.249072075	5.809826851	-94.17985535	1.0
[LeftHandRing3]
209	29.37700081	0	0	-2.89861989	5.038870811	-59.79802704	1.0
210	29.37700081	0	0	-2.898645401	5.038887501	-59.79829025	1.0
211	29.37700081	0	0	-2.898658752	5.038901329	-59.7984848	1.0
212	29.37700081	0	0	-2.898568869	5.038838863	-59.79747009	1.0
[LeftHandRing4]
209	26.47500038	0	0	0	0	0	1.0
210	26.47500038	0	0	0	0	0	1.0
211	26.47500038	0	0	0	0	0	1.0
212	26.47500038	0	0	0	0	0	1.0
[LeftHandPinky1]
209	80.77799988	-4.887000084	-38.06099701	-15.74280643	5.236320972	-84.96304321	1.0
210	80.77799988	-4.887000084	-38.06099701	-15.74285507	5.236321926	-84.96321869	1.0
211	80.77799988	-4.887000084	-38.06099701	-15.74288654	5.236316681	-84.96334839	1.0
212	80.77799988	-4.887000084	-38.06099701	-15.74271107	5.236347675	-84.96266174	1.0
[LeftHandPinky2]
209	36	0	0	-2.465529203	4.761468887	-54.73117828	1.0
210	36	0	0	-2.465530396	4.761469841	-54.73123169	1.0
211	36	0	0	-2.465531111	4.761475086	-54.73126984	1.0
212	36	0	0	-2.465516806	4.761473179	-54.73109055	1.0
[LeftHandPinky3]
209	21.14200211	0	0	-4.929654598	5.75620079	-81.14131927	1.0
210	21.14200211	0	0	-4.929670334	5.756206512	-81.1415329	1.0
211	21.14200211	0	0	-4.929690838	5.756197929	-81.14167023	1.0
212	21.14200211	0	0	-4.92960453	5.75618124	-81.14083099	1.0
[LeftHandPinky4]
209	19.75699997	0	0	0	0	0	1.0
210	19.75699997	0	0	0	0	0	1.0
211	19.75699997	0	0	0	0	0	1.0
212	19.75699997	0	0	0	0	0	1.0
[RightShoulder]
209	-45.70000076	109.4620056	-26.28000069	-25.09815788	15.48225784	-17.73984909	1.0
210	-45.70000076	109.4620056	-26.28000069	-24.36730576	15.21176529	-17.27287674	1.0
211	-45.70000076	109.4620056	-26.28000069	-23.39079666	14.29347134	-16.62527466	1.0
212	-45.70000076	109.4620056	-26.28000069	-22.00487709	12.43276978	-15.23583698	1.0
[RightArm]
209	-105.9280014	-5.248000145	-22.32099915	-69.3496933	-13.2109642	8.609798431	1.0
210	-105.9280014	-5.248000145	-22.32099915	-83.33174133	-12.70949459	9.458494186	1.0
211	-105.9280014	-5.248000145	-22.32099915	-84.48016357	-9.878072739	9.627362251	1.0
212	-105.9280014	-5.248000145	-22.32099915	-76.21551514	-4.60878706	9.210443497	1.0
[RightForeArm]
209	-278.414978	0	0	1.464855472e-06	137.0782318	6.103537544e-06	1.0
210	-278.414978	0	0	-5.126839824e-06	132.6545715	8.911290934e-06	1.0
211	-278.414978	0	0	-3.051757813e-05	120.4887466	-1.525878906e-05	1.0
212	-278.414978	0	0	-4.932821412e-06	101.7184525	0.000136219649	1.0
[RightHand]
209	-283.2879944	0	0.0009999999311	-21.42385101	-6.850529671	-29.67989349	1.0
210	-283.2879944	0	0.0009999999311	-22.58931923	-5.963927746	-45.89698792	1.0
211	-283.2879944	0	0.0009999999311	-18.85927773	-3.376820803	-57.10676956	1.0
212	-283.2879944	0	0.0009999999311	-17.01960182	-1.093951941	-54.27298737	1.0
[RightHandPinky1]
209	-80.76699829	-4.885000229	-38.06000137	-15.18223858	-1.629502535	97.58633423	1.0
210	-80.76699829	-4.885000229	-38.06000137	-15.18224239	-1.629496217	97.5863266	1.0
211	-80.76699829	-4.885000229	-38.06000137	-15.18225002	-1.629487395	97.58634186	1.0
212	-80.76699829	-4.885000229	-38.06000137	-15.18224716	-1.629499435	97.58631897	1.0
[RightHandPinky2]
209	-36	0	0.0009999999311	-1.749812722	-3.626891375	51.51877594	1.0
210	-36	0	0.0009999999311	-1.749816537	-3.626897573	51.51877594	1.0
211	-36	0	0.0009999999311	-1.749813437	-3.626899719	51.51877975	1.0
212	-36	0	0.0009999999311	-1.749811172	-3.626888275	51.51878738	1.0
[RightHandPinky3]
209	-21.14200211	0	0	-1.867247105	-3.717084169	53.33225632	1.0
210	-21.14200211	0	0	-1.867242575	-3.717079163	53.33224106	1.0
211	-21.14200211	0	0	-1.867235303	-3.717086077	53.33223343	1.0
212	-21.14200211	0	0	-1.8672328	-3.717088699	53.33227539	1.0
[RightHandPinky4]
209	-19.75699997	0	0	0	0	0	1.0
210	-19.75699997	0	0	0	0	0	1.0
211	-19.75699997	0	0	0	0	0	1.0
212	-19.75699997	0	0	0	0	0	1.0
[RightHandRing1]
209	-91.03599548	-0.4390000105	-18.65100098	-7.065038681	-0.7974030375	91.91007233	1.0
210	-91.03599548	-0.4390000105	-18.65100098	-7.065042496	-0.7974084616	91.91008759	1.0
211	-91.03599548	-0.4390000105	-18.65100098	-7.06505537	-0.7973936796	91.91008759	1.0
212	-91.03599548	-0.4390000105	-18.65100098	-7.065045357	-0.7974029779	91.91005707	1.0
[RightHandRing2]
209	-31.54000092	0	0	-4.32775116	-4.620637417	86.24687958	1.0
210	-31.54000092	0	0	-4.327752113	-4.620634556	86.24689484	1.0
211	-31.54000092	0	0	-4.327754498	-4.620633125	86.24686432	1.0
212	-31.54000092	0	0	-4.327734947	-4.62062788	86.24688721	1.0
[RightHandRing3]
209	-29.37700081	0	0	-1.156959534	-3.063942194	41.36635208	1.0
210	-29.37700081	0	0	-1.156956077	-3.063944101	41.36634445	1.0
211	-29.37700081	0	0	-1.156970143	-3.063941956	41.36633301	1.0
212	-29.37700081	0	0	-1.156973124	-3.063945293	41.36634445	1.0
[RightHandRing4]
209	-26.47500038	0	0	0	0	0	1.0
210	-26.47500038	0	0	0	0	0	1.0
211	-26.47500038	0	0	0	0	0	1.0
212	-26.47500038	0	0	0	0	0	1.0
[RightHandMiddle1]
209	-95.32500458	0	0	-5.490191936	-4.098502159	73.57289124	1.0
210	-95.32500458	0	0	-5.490193844	-4.09850502	73.57289886	1.0
211	-95.32500458	0	0	-5.490191936	-4.098499775	73.57289886	1.0
212	-95.32500458	0	0	-5.490194321	-4.09850502	73.57288361	1.0
[RightHandMiddle2]
209	-36.98199844	0	0	-6.026580334	-4.415498734	107.5651245	1.0
210	-36.98199844	0	0	-6.026583672	-4.415501118	107.5651245	1.0
211	-36.98199844	0	0	-6.026584148	-4.415498257	107.5651169	1.0
212	-36.98199844	0	0	-6.02657795	-4.41549778	107.5651169	1.0
[RightHandMiddle3]
209	-29.50900078	0	0	-1.287462831	-3.207859993	43.75227356	1.0
210	-29.50900078	0	0	-1.287469029	-3.207859755	43.75224304	1.0
211	-29.50900078	0	0	-1.287465096	-3.207857132	43.75222397	1.0
212	-29.50900078	0	0	-1.287461638	-3.207849741	43.75227356	1.0
[RightHandMiddle4]
209	-28.3390007	0	0.0009999999311	0	0	0	1.0
210	-28.3390007	0	0.0009999999311	0	0	0	1.0
211	-28.3390007	0	0.0009999999311	0	0	0	1.0
212	-28.3390007	0	0.0009999999311	0	0	0	1.0
[RightHandIndex1]
209	-91.08300018	-5.167999744	22.60099792	2.64307189	-5.360717297	51.1856842	1.0
210	-91.08300018	-5.167999744	22.60099792	2.643072128	-5.360715389	51.18567276	1.0
211	-91.08300018	-5.167999744	22.60099792	2.643053532	-5.360723972	51.18564606	1.0
212	-91.08300018	-5.167999744	22.60099792	2.643049955	-5.360738754	51.18569946	1.0
[RightHandIndex2]
209	-36.76399994	0	0	-4.042257786	-4.593081474	82.69343567	1.0
210	-36.76399994	0	0	-4.042259216	-4.593080997	82.69343567	1.0
211	-36.76399994	0	0	-4.042259693	-4.593095779	82.69343567	1.0
212	-36.76399994	0	0	-4.042255402	-4.593096256	82.6934433	1.0
[RightHandIndex3]
209	-28.83100128	0	0	-5.126293659	-4.603974819	96.1528244	1.0
210	-28.83100128	0	0	-5.126287937	-4.603961945	96.15283203	1.0
211	-28.83100128	0	0	-5.126285553	-4.603966713	96.15283203	1.0
212	-28.83100128	0	0	-5.126280308	-4.603978157	96.15283966	1.0
[RightHandIndex4]
209	-23.92700005	0	0	0	0	0	1.0
210	-23.92700005	0	0	0	0	0	1.0
211	-23.92700005	0	0	0	0	0	1.0
212	-23.92700005	0	0	0	0	0	1.0
[RightHandThumb1]
209	-24.64799881	-15.72700024	26.82600021	-2.388251305	10.16859055	-8.287029266	1.0
210	-24.64799881	-15.72700024	26.82600021	-2.388253212	10.16858768	-8.287024498	1.0
211	-24.64799881	-15.72700024	26.82600021	-2.388246298	10.16857815	-8.287043571	1.0
212	-24.64799881	-15.72700024	26.82600021	-2.388239384	10.16857815	-8.287041664	1.0
[RightHandThumb2]
209	-32.29800034	-18.64699936	18.64699936	7.070512772	-37.46694565	0.6013721228	1.0
210	-32.29800034	-18.64699936	18.64699936	7.070513725	-37.46695328	0.601343751	1.0
211	-32.29800034	-18.64699936	18.64699936	7.070510864	-37.46693802	0.6013376117	1.0
212	-32.29800034	-18.64699936	18.64699936	7.070490837	-37.46694946	0.6014094949	1.0
[RightHandThumb3]
209	-26.52600098	-15.31399918	15.31399918	3.291628838	-34.41185379	-26.10048866	1.0
210	-26.52600098	-15.31399918	15.31399918	3.291629791	-34.41184235	-26.10048676	1.0
211	-26.52600098	-15.31399918	15.31399918	3.291615486	-34.41181946	-26.1004734	1.0
212	-26.52600098	-15.31399918	15.31399918	3.291636944	-34.41186523	-26.10048866	1.0
[RightHandThumb4]
209	-19.54599953	-11.28499985	11.28499985	0	0	0	1.0
210	-19.54599953	-11.28499985	11.28499985	0	0	0	1.0
211	-19.54599953	-11.28499985	11.28499985	0	0	0	1.0
212	-19.54599953	-11.28499985	11.28499985	0	0	0	1.0
[LeftUpLeg]
209	82.07800293	-67.51699829	-15.99599934	-28.30573654	20.45251083	14.27893162	1.0
210	82.07800293	-67.51699829	-15.99599934	-25.40688705	19.44983292	16.13835716	1.0
211	82.07800293	-67.51699829	-15.99599934	-20.83595467	16.88998604	18.31836319	1.0
212	82.07800293	-67.51699829	-15.99599934	-14.93770027	14.64251995	20.06503677	1.0
[LeftLeg]
209	0	-443.7049866	2.845999956	46.94161224	2.864145041	3.251102448	1.0
210	0	-443.7049866	2.845999956	43.09985352	3.336474419	3.14321208	1.0
211	0	-443.7049866	2.845999956	34.75762939	5.547477722	3.953921795	1.0
212	0	-443.7049866	2.845999956	22.85469437	8.559108734	3.763846397	1.0
[LeftFoot]
209	0	-444.2789917	-29.8219986	-16.68878174	-1.763304353	-12.96395397	1.0
210	0	-444.2789917	-29.8219986	-14.18105698	-1.364040613	-12.61628056	1.0
211	0	-444.2789917	-29.8219986	-7.493309021	0.1714558899	-10.8254509	1.0
212	0	-444.2789917	-29.8219986	3.040400982	1.321203351	-7.144578934	1.0
[LeftToeBase]
209	0	-87.28699493	107.1060028	0.7598454952	0.02541770041	-1.04002285	1.0
210	0	-87.28699493	107.1060028	-0.3257633448	0.002865914255	-0.2942497432	1.0
211	0	-87.28699493	107.1060028	-3.039584637	-2.832475047e-06	-2.306421948e-06	1.0
212	0	-87.28699493	107.1060028	-5.651703358	-0.1256058216	-1.473195076	1.0
[RightUpLeg]
209	-82.07800293	-67.51699829	-15.99599934	-63.58286285	-4.226331234	-6.547774315	1.0
210	-82.07800293	-67.51699829	-15.99599934	-65.86283875	-10.14694118	-6.143220425	1.0
211	-82.07800293	-67.51699829	-15.99599934	-62.36238861	-15.51872158	-6.323347092	1.0
212	-82.07800293	-67.51699829	-15.99599934	-53.95690918	-18.55736732	-6.808089733	1.0
[RightLeg]
209	0	-443.7049866	2.861999989	102.4611511	3.093531609	-8.943458557	1.0
210	0	-443.7049866	2.861999989	109.7926559	4.204057217	-7.309370518	1.0
211	0	-443.7049866	2.861999989	108.6292419	3.956595182	-6.358697414	1.0
212	0	-443.7049866	2.861999989	97.0245285	2.826127291	-7.952268124	1.0
[RightFoot]
209	0	-444.2770081	-29.83799934	-0.6933840513	-11.9067688	5.790987968	1.0
210	0	-444.2770081	-29.83799934	-3.895499706	-17.31373405	2.872330904	1.0
211	0	-444.2770081	-29.83799934	-3.305618525	-21.97541809	0.05779195577	1.0
212	0	-444.2770081	-29.83799934	1.829431891	-24.29048729	-1.528101206	1.0
[RightToeBase]
209	0	-87.28699493	107.1060028	0.7325641513	1.914571294e-05	-6.41010638e-06	1.0
210	0	-87.28699493	107.1060028	1.72969079	3.730859135e-06	-3.299275477e-06	1.0
211	0	-87.28699493	107.1060028	1.297406673	-3.611117563e-06	3.00372767e-06	1.0
212	0	-87.28699493	107.1060028	1.292560697	-1.789842645e-05	-2.90105703e-07	1.0
[EndOfFile]
